<svg width="184" height="122" viewBox="0 0 184 122" fill="none" xmlns="http://www.w3.org/2000/svg">
<g clip-path="url(#clip0_4064_199)">
<mask id="path-1-outside-1_4064_199" maskUnits="userSpaceOnUse" x="-1.28317" y="-0.685181" width="185" height="123" fill="black">
<rect fill="white" x="-1.28317" y="-0.685181" width="185" height="123"/>
<path d="M10.9448 80.3151C11.9006 81.174 12.9011 81.9809 13.9421 82.7324C19.1694 86.3763 25.07 88.9235 31.2932 90.2227C38.4354 91.7576 45.7715 92.1588 53.0365 91.4117C56.2915 91.0988 59.5256 90.595 62.7225 89.903C67.0275 88.9755 71.2581 87.7265 75.3794 86.1662C77.4712 85.3764 79.532 84.5103 81.5617 83.5681C86.3382 81.3579 90.9012 78.7063 95.1922 75.6473C96.6471 74.6041 98.0657 73.5142 99.4483 72.3775C100.111 71.8307 100.76 71.2768 101.395 70.716C102.384 69.8429 103.348 68.9423 104.287 68.014L104.816 67.491C105.909 66.389 106.963 65.2495 107.977 64.0726C108.965 62.9257 109.91 61.7427 110.812 60.5238C114.826 55.2526 117.68 49.1797 119.183 42.7095C120.572 36.5934 120.143 30.2006 117.95 24.3288C117.326 22.7352 116.563 21.2004 115.671 19.7423C114.464 17.786 113.049 15.9684 111.45 14.3216C110.894 13.751 110.279 13.2658 109.686 12.7358C109.048 12.1623 108.383 11.6393 107.709 11.1163C106.314 10.0363 104.848 9.05258 103.322 8.17181C98.9327 5.69148 94.1965 3.89508 89.2741 2.84366C82.7077 1.43931 75.9745 0.999158 69.2832 1.53685C65.6042 1.81357 61.9478 2.33868 58.3385 3.10866C53.9002 4.05293 49.539 5.33394 45.2922 6.94073C43.3033 7.69228 41.3839 8.50973 39.4965 9.37766C33.4535 12.1305 27.7572 15.5991 22.5279 19.7101C21.4389 20.571 20.3749 21.4768 19.354 22.3742C18.7601 22.9084 18.1495 23.4426 17.5737 23.9922C15.9146 25.5483 14.3362 27.1896 12.8447 28.9096C11.732 30.2037 10.6819 31.512 9.67079 32.8945C5.89033 37.938 3.1601 43.6998 1.64412 49.8338C0.139905 55.9466 0.471521 62.3721 2.59686 68.2945C2.7735 68.7558 2.95014 69.2115 3.1532 69.6588C3.73519 70.9881 4.41393 72.2723 5.18386 73.5006C5.9742 74.7587 6.85268 75.9583 7.8126 77.0901C7.96559 77.2706 8.11998 77.4486 8.27575 77.6244C9.1136 78.572 10.0048 79.4704 10.9448 80.3151Z"/>
<path d="M17.9937 74.4052C17.735 74.4052 17.5764 74.3463 17.4985 74.2271C17.4012 74.0729 17.4471 73.8065 17.6376 73.4139C17.8282 73.0213 42.5633 21.9257 44.5355 17.8805C44.6256 17.6433 44.7757 17.4341 44.9709 17.2737C45.1661 17.1133 45.3997 17.0073 45.6482 16.9663C46.0655 16.9663 46.327 17.3448 46.3812 18.0081C46.6065 20.731 48.5899 47.3129 49.7527 62.9174C49.9655 65.7932 50.1226 67.8726 50.1338 68.0184C50.2116 69.021 50.1129 69.293 49.0211 69.4725C48.3966 69.5762 44.1044 70.2633 43.0904 70.4245C42.9737 70.4447 42.8556 70.4555 42.7371 70.4568C42.1808 70.4568 42.1432 70.1553 42.1377 69.6968C42.1265 68.8064 42.0737 64.8664 42.0431 62.4828L42.0292 61.4578V61.3905L31.0998 63.0983C31.0998 63.1165 27.2346 72.2052 27.1024 72.5305C26.9258 72.9512 26.72 73.0549 26.1775 73.1433C24.5085 73.4125 19.0507 74.2818 18.4318 74.3744C18.2867 74.3953 18.1403 74.4057 17.9937 74.4052ZM41.9555 37.0576L34.0011 55.8015L42.032 54.5396L41.9555 37.0576ZM58.828 67.9988C57.1547 68.0402 55.4895 67.7506 53.9266 67.1463C52.782 66.6696 52.622 66.3134 52.9795 65.0333C53.2382 64.1163 54.6054 59.3532 54.6054 59.3251C54.8095 59.693 55.0721 60.0246 55.3829 60.3066C56.1853 61.0405 57.172 61.5385 58.2355 61.7466C58.7099 61.8508 59.1938 61.9044 59.6792 61.9065C60.4841 61.9563 61.287 61.7805 61.9989 61.3986C62.7108 61.0168 63.304 60.4437 63.7128 59.743C64.102 58.8212 64.1235 57.7835 63.7726 56.8461C63.0675 55.0026 61.8862 53.3828 60.351 52.1545C58.7108 50.7896 57.4464 49.0224 56.6792 47.0227C55.9583 44.4055 56.2382 41.6108 57.4636 39.1917C58.355 37.654 59.617 36.368 61.1327 35.453C62.6484 34.538 64.3688 34.0236 66.1343 33.9575C66.5961 33.9051 67.0604 33.8789 67.5251 33.879C69.1984 33.8909 70.8568 34.1979 72.4251 34.7861C72.5554 34.8174 72.677 34.8781 72.7806 34.9636C72.8842 35.0492 72.9672 35.1574 73.0232 35.2801C73.0792 35.4027 73.1068 35.5366 73.1039 35.6716C73.101 35.8066 73.0677 35.9392 73.0065 36.0593C72.9161 36.3229 72.0732 38.7234 71.5711 40.1718V40.1928L71.2179 41.2262V41.2486C70.1262 40.3885 68.8735 39.7595 67.5349 39.3992H67.2316C66.7663 39.371 66.3011 39.4545 65.874 39.6429C65.447 39.8314 65.0705 40.1193 64.7754 40.4831C64.3197 40.9831 64.0221 41.6088 63.9208 42.2801C63.8195 42.9514 63.919 43.638 64.2065 44.252C64.6238 45.0064 65.041 45.5995 68.7658 48.9927C69.7507 49.8433 70.5599 50.8812 71.1469 52.047C71.734 53.2129 72.0875 54.4839 72.1873 55.7875C72.3305 57.7808 71.9258 59.7753 71.0176 61.5517C70.2264 63.0131 69.1534 64.3003 67.8617 65.3375C66.5423 66.4328 64.981 67.1921 63.3094 67.5515C61.8353 67.8465 60.3365 67.9977 58.8336 68.003L58.828 67.9988ZM74.1275 65.4217C74.0641 65.4309 73.9994 65.4256 73.9382 65.4062C73.8771 65.3868 73.821 65.3537 73.7743 65.3095C73.6352 65.1454 73.6964 64.7753 73.8216 64.0854C73.8828 63.7405 75.3515 55.7651 77.0623 46.5333V46.5151C79.7911 31.714 83.196 13.28 83.2794 12.8089C83.4658 11.7405 83.7871 11.5077 84.5966 11.3857C85.2002 11.2848 89.4855 10.8249 90.4382 10.8094H90.4966C90.9139 10.8094 91.1503 10.8767 91.2852 11.0394C91.4494 11.2371 91.4702 11.5834 91.3562 12.2354C91.1976 13.1356 84.9763 46.3412 84.9137 46.6764C84.9512 46.6105 86.7955 43.4977 88.7469 40.204C90.9723 36.4365 93.2839 32.5413 93.4369 32.2777C93.5517 32.0333 93.7311 31.8255 93.9553 31.6771C94.1796 31.5287 94.44 31.4454 94.7081 31.4364L98.2868 31.0803L100.685 30.8363C100.861 30.8209 100.973 30.8083 101.069 30.8083C101.158 30.8017 101.247 30.8201 101.326 30.8615C101.37 30.8897 101.406 30.929 101.43 30.9755C101.455 31.0219 101.467 31.074 101.465 31.1265C101.461 31.2682 101.417 31.4058 101.338 31.5233C100.985 32.0982 92.1698 46.4871 92.0878 46.6329L92.7387 48.4991C94.1031 52.4139 96.9419 60.5646 97.0935 61.0105C97.1922 61.3022 97.2047 61.4788 97.1324 61.6008C97.0601 61.7228 96.8709 61.8167 96.5051 61.8812C96.1393 61.9457 92.1851 62.5823 90.5411 62.8375C90.4304 62.8569 90.3183 62.8677 90.2059 62.8697C89.8095 62.8697 89.6774 62.6917 89.5105 62.2402C89.2949 61.6569 84.6327 48.4795 84.5841 48.3463L81.6549 63.6045C81.5255 64.2789 81.2794 64.3168 80.8718 64.3799L80.8037 64.3911C79.0762 64.6715 75.613 65.224 74.8786 65.3389C74.628 65.3826 74.3748 65.4093 74.1206 65.4189L74.1275 65.4217Z"/>
<path d="M59.7207 104.036C58.7107 109.686 57.4307 112.626 54.7507 115.336C52.4207 117.716 49.6707 119.166 46.5207 119.636C43.7307 120.046 41.9707 119.816 39.7307 118.766L43.5707 113.466C44.9307 114.256 45.9907 114.486 47.3607 114.276C50.9307 113.746 52.5807 111.296 53.7207 104.916L58.0807 80.5059L64.0807 79.6159L59.7207 104.026V104.036ZM86.7907 101.236L86.5307 102.706L68.6407 105.356C68.2407 109.206 70.2907 111.326 73.9807 110.776C76.8907 110.346 78.6307 109.046 81.5807 105.136L85.9907 107.016C82.0907 112.326 78.1507 114.946 72.8607 115.726C65.5507 116.806 61.4507 112.526 62.7707 105.126C64.1607 97.3259 69.8007 91.7059 77.2307 90.6059C84.4207 89.5359 88.1307 93.7159 86.7907 101.236ZM76.3407 95.5859C73.5507 95.9959 70.9807 98.0259 69.7907 100.846L81.3807 99.1259C81.1107 96.4159 79.3107 95.1459 76.3407 95.5859ZM113.541 97.2759L113.281 98.7459L95.3907 101.396C94.9907 105.246 97.0407 107.366 100.731 106.816C103.641 106.386 105.381 105.086 108.331 101.176L112.741 103.046C108.841 108.356 104.901 110.976 99.6107 111.756C92.3007 112.836 88.2007 108.556 89.5207 101.146C90.9107 93.3459 96.5507 87.7259 103.981 86.6259C111.181 85.5559 114.881 89.7359 113.541 97.2559V97.2759ZM103.091 91.6159C100.301 92.0259 97.7307 94.0559 96.5407 96.8759L108.131 95.1559C107.861 92.4459 106.061 91.1759 103.091 91.6159ZM122.691 109.226L114.331 85.7159L120.811 84.7559L124.911 97.1259L133.711 82.8359L140.191 81.8759L122.691 109.226ZM161.511 90.1559L161.251 91.6259L143.361 94.2759C142.961 98.1359 145.011 100.246 148.701 99.6959C151.611 99.2659 153.351 97.9659 156.301 94.0559L160.711 95.9359C156.811 101.246 152.871 103.866 147.581 104.646C140.271 105.736 136.171 101.446 137.491 94.0459C138.881 86.2459 144.521 80.6259 151.951 79.5259C159.141 78.4559 162.851 82.6359 161.511 90.1559ZM151.061 84.5059C148.271 84.9159 145.701 86.9459 144.511 89.7659L156.101 88.0459C155.831 85.3359 154.031 84.0659 151.061 84.5059ZM175.711 82.9359C175.151 81.5359 174.441 80.9759 173.251 81.1559C172.241 81.3059 171.221 82.1759 171.051 83.1359C170.871 84.1559 171.371 84.5759 173.891 85.3559C179.591 87.1459 180.911 88.4959 180.281 91.9959C179.481 96.4559 174.921 100.606 169.991 101.336C165.711 101.976 163.141 100.486 162.061 96.7859L167.381 93.9059C168.321 96.0759 169.141 96.6659 170.871 96.4159C172.651 96.1459 174.021 94.9559 174.301 93.4359C174.581 91.8559 174.271 91.6859 169.311 89.9459C165.931 88.7959 165.011 87.4459 165.531 84.5159C166.291 80.2759 170.081 76.8559 174.781 76.1559C177.871 75.6959 179.861 76.8859 180.901 79.8159L175.711 82.9559V82.9359Z"/>
</mask>
<path d="M10.9448 80.3151C11.9006 81.174 12.9011 81.9809 13.9421 82.7324C19.1694 86.3763 25.07 88.9235 31.2932 90.2227C38.4354 91.7576 45.7715 92.1588 53.0365 91.4117C56.2915 91.0988 59.5256 90.595 62.7225 89.903C67.0275 88.9755 71.2581 87.7265 75.3794 86.1662C77.4712 85.3764 79.532 84.5103 81.5617 83.5681C86.3382 81.3579 90.9012 78.7063 95.1922 75.6473C96.6471 74.6041 98.0657 73.5142 99.4483 72.3775C100.111 71.8307 100.76 71.2768 101.395 70.716C102.384 69.8429 103.348 68.9423 104.287 68.014L104.816 67.491C105.909 66.389 106.963 65.2495 107.977 64.0726C108.965 62.9257 109.91 61.7427 110.812 60.5238C114.826 55.2526 117.68 49.1797 119.183 42.7095C120.572 36.5934 120.143 30.2006 117.95 24.3288C117.326 22.7352 116.563 21.2004 115.671 19.7423C114.464 17.786 113.049 15.9684 111.45 14.3216C110.894 13.751 110.279 13.2658 109.686 12.7358C109.048 12.1623 108.383 11.6393 107.709 11.1163C106.314 10.0363 104.848 9.05258 103.322 8.17181C98.9327 5.69148 94.1965 3.89508 89.2741 2.84366C82.7077 1.43931 75.9745 0.999158 69.2832 1.53685C65.6042 1.81357 61.9478 2.33868 58.3385 3.10866C53.9002 4.05293 49.539 5.33394 45.2922 6.94073C43.3033 7.69228 41.3839 8.50973 39.4965 9.37766C33.4535 12.1305 27.7572 15.5991 22.5279 19.7101C21.4389 20.571 20.3749 21.4768 19.354 22.3742C18.7601 22.9084 18.1495 23.4426 17.5737 23.9922C15.9146 25.5483 14.3362 27.1896 12.8447 28.9096C11.732 30.2037 10.6819 31.512 9.67079 32.8945C5.89033 37.938 3.1601 43.6998 1.64412 49.8338C0.139905 55.9466 0.471521 62.3721 2.59686 68.2945C2.7735 68.7558 2.95014 69.2115 3.1532 69.6588C3.73519 70.9881 4.41393 72.2723 5.18386 73.5006C5.9742 74.7587 6.85268 75.9583 7.8126 77.0901C7.96559 77.2706 8.11998 77.4486 8.27575 77.6244C9.1136 78.572 10.0048 79.4704 10.9448 80.3151Z" fill="#CF0000"/>
<path d="M17.9937 74.4052C17.735 74.4052 17.5764 74.3463 17.4985 74.2271C17.4012 74.0729 17.4471 73.8065 17.6376 73.4139C17.8282 73.0213 42.5633 21.9257 44.5355 17.8805C44.6256 17.6433 44.7757 17.4341 44.9709 17.2737C45.1661 17.1133 45.3997 17.0073 45.6482 16.9663C46.0655 16.9663 46.327 17.3448 46.3812 18.0081C46.6065 20.731 48.5899 47.3129 49.7527 62.9174C49.9655 65.7932 50.1226 67.8726 50.1338 68.0184C50.2116 69.021 50.1129 69.293 49.0211 69.4725C48.3966 69.5762 44.1044 70.2633 43.0904 70.4245C42.9737 70.4447 42.8556 70.4555 42.7371 70.4568C42.1808 70.4568 42.1432 70.1553 42.1377 69.6968C42.1265 68.8064 42.0737 64.8664 42.0431 62.4828L42.0292 61.4578V61.3905L31.0998 63.0983C31.0998 63.1165 27.2346 72.2052 27.1024 72.5305C26.9258 72.9512 26.72 73.0549 26.1775 73.1433C24.5085 73.4125 19.0507 74.2818 18.4318 74.3744C18.2867 74.3953 18.1403 74.4057 17.9937 74.4052ZM41.9555 37.0576L34.0011 55.8015L42.032 54.5396L41.9555 37.0576ZM58.828 67.9988C57.1547 68.0402 55.4895 67.7506 53.9266 67.1463C52.782 66.6696 52.622 66.3134 52.9795 65.0333C53.2382 64.1163 54.6054 59.3532 54.6054 59.3251C54.8095 59.693 55.0721 60.0246 55.3829 60.3066C56.1853 61.0405 57.172 61.5385 58.2355 61.7466C58.7099 61.8508 59.1938 61.9044 59.6792 61.9065C60.4841 61.9563 61.287 61.7805 61.9989 61.3986C62.7108 61.0168 63.304 60.4437 63.7128 59.743C64.102 58.8212 64.1235 57.7835 63.7726 56.8461C63.0675 55.0026 61.8862 53.3828 60.351 52.1545C58.7108 50.7896 57.4464 49.0224 56.6792 47.0227C55.9583 44.4055 56.2382 41.6108 57.4636 39.1917C58.355 37.654 59.617 36.368 61.1327 35.453C62.6484 34.538 64.3688 34.0236 66.1343 33.9575C66.5961 33.9051 67.0604 33.8789 67.5251 33.879C69.1984 33.8909 70.8568 34.1979 72.4251 34.7861C72.5554 34.8174 72.677 34.8781 72.7806 34.9636C72.8842 35.0492 72.9672 35.1574 73.0232 35.2801C73.0792 35.4027 73.1068 35.5366 73.1039 35.6716C73.101 35.8066 73.0677 35.9392 73.0065 36.0593C72.9161 36.3229 72.0732 38.7234 71.5711 40.1718V40.1928L71.2179 41.2262V41.2486C70.1262 40.3885 68.8735 39.7595 67.5349 39.3992H67.2316C66.7663 39.371 66.3011 39.4545 65.874 39.6429C65.447 39.8314 65.0705 40.1193 64.7754 40.4831C64.3197 40.9831 64.0221 41.6088 63.9208 42.2801C63.8195 42.9514 63.919 43.638 64.2065 44.252C64.6238 45.0064 65.041 45.5995 68.7658 48.9927C69.7507 49.8433 70.5599 50.8812 71.1469 52.047C71.734 53.2129 72.0875 54.4839 72.1873 55.7875C72.3305 57.7808 71.9258 59.7753 71.0176 61.5517C70.2264 63.0131 69.1534 64.3003 67.8617 65.3375C66.5423 66.4328 64.981 67.1921 63.3094 67.5515C61.8353 67.8465 60.3365 67.9977 58.8336 68.003L58.828 67.9988ZM74.1275 65.4217C74.0641 65.4309 73.9994 65.4256 73.9382 65.4062C73.8771 65.3868 73.821 65.3537 73.7743 65.3095C73.6352 65.1454 73.6964 64.7753 73.8216 64.0854C73.8828 63.7405 75.3515 55.7651 77.0623 46.5333V46.5151C79.7911 31.714 83.196 13.28 83.2794 12.8089C83.4658 11.7405 83.7871 11.5077 84.5966 11.3857C85.2002 11.2848 89.4855 10.8249 90.4382 10.8094H90.4966C90.9139 10.8094 91.1503 10.8767 91.2852 11.0394C91.4494 11.2371 91.4702 11.5834 91.3562 12.2354C91.1976 13.1356 84.9763 46.3412 84.9137 46.6764C84.9512 46.6105 86.7955 43.4977 88.7469 40.204C90.9723 36.4365 93.2839 32.5413 93.4369 32.2777C93.5517 32.0333 93.7311 31.8255 93.9553 31.6771C94.1796 31.5287 94.44 31.4454 94.7081 31.4364L98.2868 31.0803L100.685 30.8363C100.861 30.8209 100.973 30.8083 101.069 30.8083C101.158 30.8017 101.247 30.8201 101.326 30.8615C101.37 30.8897 101.406 30.929 101.43 30.9755C101.455 31.0219 101.467 31.074 101.465 31.1265C101.461 31.2682 101.417 31.4058 101.338 31.5233C100.985 32.0982 92.1698 46.4871 92.0878 46.6329L92.7387 48.4991C94.1031 52.4139 96.9419 60.5646 97.0935 61.0105C97.1922 61.3022 97.2047 61.4788 97.1324 61.6008C97.0601 61.7228 96.8709 61.8167 96.5051 61.8812C96.1393 61.9457 92.1851 62.5823 90.5411 62.8375C90.4304 62.8569 90.3183 62.8677 90.2059 62.8697C89.8095 62.8697 89.6774 62.6917 89.5105 62.2402C89.2949 61.6569 84.6327 48.4795 84.5841 48.3463L81.6549 63.6045C81.5255 64.2789 81.2794 64.3168 80.8718 64.3799L80.8037 64.3911C79.0762 64.6715 75.613 65.224 74.8786 65.3389C74.628 65.3826 74.3748 65.4093 74.1206 65.4189L74.1275 65.4217Z" fill="white"/>
<path d="M59.7207 104.036C58.7107 109.686 57.4307 112.626 54.7507 115.336C52.4207 117.716 49.6707 119.166 46.5207 119.636C43.7307 120.046 41.9707 119.816 39.7307 118.766L43.5707 113.466C44.9307 114.256 45.9907 114.486 47.3607 114.276C50.9307 113.746 52.5807 111.296 53.7207 104.916L58.0807 80.5059L64.0807 79.6159L59.7207 104.026V104.036ZM86.7907 101.236L86.5307 102.706L68.6407 105.356C68.2407 109.206 70.2907 111.326 73.9807 110.776C76.8907 110.346 78.6307 109.046 81.5807 105.136L85.9907 107.016C82.0907 112.326 78.1507 114.946 72.8607 115.726C65.5507 116.806 61.4507 112.526 62.7707 105.126C64.1607 97.3259 69.8007 91.7059 77.2307 90.6059C84.4207 89.5359 88.1307 93.7159 86.7907 101.236ZM76.3407 95.5859C73.5507 95.9959 70.9807 98.0259 69.7907 100.846L81.3807 99.1259C81.1107 96.4159 79.3107 95.1459 76.3407 95.5859ZM113.541 97.2759L113.281 98.7459L95.3907 101.396C94.9907 105.246 97.0407 107.366 100.731 106.816C103.641 106.386 105.381 105.086 108.331 101.176L112.741 103.046C108.841 108.356 104.901 110.976 99.6107 111.756C92.3007 112.836 88.2007 108.556 89.5207 101.146C90.9107 93.3459 96.5507 87.7259 103.981 86.6259C111.181 85.5559 114.881 89.7359 113.541 97.2559V97.2759ZM103.091 91.6159C100.301 92.0259 97.7307 94.0559 96.5407 96.8759L108.131 95.1559C107.861 92.4459 106.061 91.1759 103.091 91.6159ZM122.691 109.226L114.331 85.7159L120.811 84.7559L124.911 97.1259L133.711 82.8359L140.191 81.8759L122.691 109.226ZM161.511 90.1559L161.251 91.6259L143.361 94.2759C142.961 98.1359 145.011 100.246 148.701 99.6959C151.611 99.2659 153.351 97.9659 156.301 94.0559L160.711 95.9359C156.811 101.246 152.871 103.866 147.581 104.646C140.271 105.736 136.171 101.446 137.491 94.0459C138.881 86.2459 144.521 80.6259 151.951 79.5259C159.141 78.4559 162.851 82.6359 161.511 90.1559ZM151.061 84.5059C148.271 84.9159 145.701 86.9459 144.511 89.7659L156.101 88.0459C155.831 85.3359 154.031 84.0659 151.061 84.5059ZM175.711 82.9359C175.151 81.5359 174.441 80.9759 173.251 81.1559C172.241 81.3059 171.221 82.1759 171.051 83.1359C170.871 84.1559 171.371 84.5759 173.891 85.3559C179.591 87.1459 180.911 88.4959 180.281 91.9959C179.481 96.4559 174.921 100.606 169.991 101.336C165.711 101.976 163.141 100.486 162.061 96.7859L167.381 93.9059C168.321 96.0759 169.141 96.6659 170.871 96.4159C172.651 96.1459 174.021 94.9559 174.301 93.4359C174.581 91.8559 174.271 91.6859 169.311 89.9459C165.931 88.7959 165.011 87.4459 165.531 84.5159C166.291 80.2759 170.081 76.8559 174.781 76.1559C177.871 75.6959 179.861 76.8859 180.901 79.8159L175.711 82.9559V82.9359Z" fill="black"/>
<path d="M10.9448 80.3151C11.9006 81.174 12.9011 81.9809 13.9421 82.7324C19.1694 86.3763 25.07 88.9235 31.2932 90.2227C38.4354 91.7576 45.7715 92.1588 53.0365 91.4117C56.2915 91.0988 59.5256 90.595 62.7225 89.903C67.0275 88.9755 71.2581 87.7265 75.3794 86.1662C77.4712 85.3764 79.532 84.5103 81.5617 83.5681C86.3382 81.3579 90.9012 78.7063 95.1922 75.6473C96.6471 74.6041 98.0657 73.5142 99.4483 72.3775C100.111 71.8307 100.76 71.2768 101.395 70.716C102.384 69.8429 103.348 68.9423 104.287 68.014L104.816 67.491C105.909 66.389 106.963 65.2495 107.977 64.0726C108.965 62.9257 109.91 61.7427 110.812 60.5238C114.826 55.2526 117.68 49.1797 119.183 42.7095C120.572 36.5934 120.143 30.2006 117.95 24.3288C117.326 22.7352 116.563 21.2004 115.671 19.7423C114.464 17.786 113.049 15.9684 111.45 14.3216C110.894 13.751 110.279 13.2658 109.686 12.7358C109.048 12.1623 108.383 11.6393 107.709 11.1163C106.314 10.0363 104.848 9.05258 103.322 8.17181C98.9327 5.69148 94.1965 3.89508 89.2741 2.84366C82.7077 1.43931 75.9745 0.999158 69.2832 1.53685C65.6042 1.81357 61.9478 2.33868 58.3385 3.10866C53.9002 4.05293 49.539 5.33394 45.2922 6.94073C43.3033 7.69228 41.3839 8.50973 39.4965 9.37766C33.4535 12.1305 27.7572 15.5991 22.5279 19.7101C21.4389 20.571 20.3749 21.4768 19.354 22.3742C18.7601 22.9084 18.1495 23.4426 17.5737 23.9922C15.9146 25.5483 14.3362 27.1896 12.8447 28.9096C11.732 30.2037 10.6819 31.512 9.67079 32.8945C5.89033 37.938 3.1601 43.6998 1.64412 49.8338C0.139905 55.9466 0.471521 62.3721 2.59686 68.2945C2.7735 68.7558 2.95014 69.2115 3.1532 69.6588C3.73519 70.9881 4.41393 72.2723 5.18386 73.5006C5.9742 74.7587 6.85268 75.9583 7.8126 77.0901C7.96559 77.2706 8.11998 77.4486 8.27575 77.6244C9.1136 78.572 10.0048 79.4704 10.9448 80.3151Z" stroke="white" stroke-width="4" mask="url(#path-1-outside-1_4064_199)"/>
<path d="M17.9937 74.4052C17.735 74.4052 17.5764 74.3463 17.4985 74.2271C17.4012 74.0729 17.4471 73.8065 17.6376 73.4139C17.8282 73.0213 42.5633 21.9257 44.5355 17.8805C44.6256 17.6433 44.7757 17.4341 44.9709 17.2737C45.1661 17.1133 45.3997 17.0073 45.6482 16.9663C46.0655 16.9663 46.327 17.3448 46.3812 18.0081C46.6065 20.731 48.5899 47.3129 49.7527 62.9174C49.9655 65.7932 50.1226 67.8726 50.1338 68.0184C50.2116 69.021 50.1129 69.293 49.0211 69.4725C48.3966 69.5762 44.1044 70.2633 43.0904 70.4245C42.9737 70.4447 42.8556 70.4555 42.7371 70.4568C42.1808 70.4568 42.1432 70.1553 42.1377 69.6968C42.1265 68.8064 42.0737 64.8664 42.0431 62.4828L42.0292 61.4578V61.3905L31.0998 63.0983C31.0998 63.1165 27.2346 72.2052 27.1024 72.5305C26.9258 72.9512 26.72 73.0549 26.1775 73.1433C24.5085 73.4125 19.0507 74.2818 18.4318 74.3744C18.2867 74.3953 18.1403 74.4057 17.9937 74.4052ZM41.9555 37.0576L34.0011 55.8015L42.032 54.5396L41.9555 37.0576ZM58.828 67.9988C57.1547 68.0402 55.4895 67.7506 53.9266 67.1463C52.782 66.6696 52.622 66.3134 52.9795 65.0333C53.2382 64.1163 54.6054 59.3532 54.6054 59.3251C54.8095 59.693 55.0721 60.0246 55.3829 60.3066C56.1853 61.0405 57.172 61.5385 58.2355 61.7466C58.7099 61.8508 59.1938 61.9044 59.6792 61.9065C60.4841 61.9563 61.287 61.7805 61.9989 61.3986C62.7108 61.0168 63.304 60.4437 63.7128 59.743C64.102 58.8212 64.1235 57.7835 63.7726 56.8461C63.0675 55.0026 61.8862 53.3828 60.351 52.1545C58.7108 50.7896 57.4464 49.0224 56.6792 47.0227C55.9583 44.4055 56.2382 41.6108 57.4636 39.1917C58.355 37.654 59.617 36.368 61.1327 35.453C62.6484 34.538 64.3688 34.0236 66.1343 33.9575C66.5961 33.9051 67.0604 33.8789 67.5251 33.879C69.1984 33.8909 70.8568 34.1979 72.4251 34.7861C72.5554 34.8174 72.677 34.8781 72.7806 34.9636C72.8842 35.0492 72.9672 35.1574 73.0232 35.2801C73.0792 35.4027 73.1068 35.5366 73.1039 35.6716C73.101 35.8066 73.0677 35.9392 73.0065 36.0593C72.9161 36.3229 72.0732 38.7234 71.5711 40.1718V40.1928L71.2179 41.2262V41.2486C70.1262 40.3885 68.8735 39.7595 67.5349 39.3992H67.2316C66.7663 39.371 66.3011 39.4545 65.874 39.6429C65.447 39.8314 65.0705 40.1193 64.7754 40.4831C64.3197 40.9831 64.0221 41.6088 63.9208 42.2801C63.8195 42.9514 63.919 43.638 64.2065 44.252C64.6238 45.0064 65.041 45.5995 68.7658 48.9927C69.7507 49.8433 70.5599 50.8812 71.1469 52.047C71.734 53.2129 72.0875 54.4839 72.1873 55.7875C72.3305 57.7808 71.9258 59.7753 71.0176 61.5517C70.2264 63.0131 69.1534 64.3003 67.8617 65.3375C66.5423 66.4328 64.981 67.1921 63.3094 67.5515C61.8353 67.8465 60.3365 67.9977 58.8336 68.003L58.828 67.9988ZM74.1275 65.4217C74.0641 65.4309 73.9994 65.4256 73.9382 65.4062C73.8771 65.3868 73.821 65.3537 73.7743 65.3095C73.6352 65.1454 73.6964 64.7753 73.8216 64.0854C73.8828 63.7405 75.3515 55.7651 77.0623 46.5333V46.5151C79.7911 31.714 83.196 13.28 83.2794 12.8089C83.4658 11.7405 83.7871 11.5077 84.5966 11.3857C85.2002 11.2848 89.4855 10.8249 90.4382 10.8094H90.4966C90.9139 10.8094 91.1503 10.8767 91.2852 11.0394C91.4494 11.2371 91.4702 11.5834 91.3562 12.2354C91.1976 13.1356 84.9763 46.3412 84.9137 46.6764C84.9512 46.6105 86.7955 43.4977 88.7469 40.204C90.9723 36.4365 93.2839 32.5413 93.4369 32.2777C93.5517 32.0333 93.7311 31.8255 93.9553 31.6771C94.1796 31.5287 94.44 31.4454 94.7081 31.4364L98.2868 31.0803L100.685 30.8363C100.861 30.8209 100.973 30.8083 101.069 30.8083C101.158 30.8017 101.247 30.8201 101.326 30.8615C101.37 30.8897 101.406 30.929 101.43 30.9755C101.455 31.0219 101.467 31.074 101.465 31.1265C101.461 31.2682 101.417 31.4058 101.338 31.5233C100.985 32.0982 92.1698 46.4871 92.0878 46.6329L92.7387 48.4991C94.1031 52.4139 96.9419 60.5646 97.0935 61.0105C97.1922 61.3022 97.2047 61.4788 97.1324 61.6008C97.0601 61.7228 96.8709 61.8167 96.5051 61.8812C96.1393 61.9457 92.1851 62.5823 90.5411 62.8375C90.4304 62.8569 90.3183 62.8677 90.2059 62.8697C89.8095 62.8697 89.6774 62.6917 89.5105 62.2402C89.2949 61.6569 84.6327 48.4795 84.5841 48.3463L81.6549 63.6045C81.5255 64.2789 81.2794 64.3168 80.8718 64.3799L80.8037 64.3911C79.0762 64.6715 75.613 65.224 74.8786 65.3389C74.628 65.3826 74.3748 65.4093 74.1206 65.4189L74.1275 65.4217Z" stroke="white" stroke-width="4" mask="url(#path-1-outside-1_4064_199)"/>
<path d="M59.7207 104.036C58.7107 109.686 57.4307 112.626 54.7507 115.336C52.4207 117.716 49.6707 119.166 46.5207 119.636C43.7307 120.046 41.9707 119.816 39.7307 118.766L43.5707 113.466C44.9307 114.256 45.9907 114.486 47.3607 114.276C50.9307 113.746 52.5807 111.296 53.7207 104.916L58.0807 80.5059L64.0807 79.6159L59.7207 104.026V104.036ZM86.7907 101.236L86.5307 102.706L68.6407 105.356C68.2407 109.206 70.2907 111.326 73.9807 110.776C76.8907 110.346 78.6307 109.046 81.5807 105.136L85.9907 107.016C82.0907 112.326 78.1507 114.946 72.8607 115.726C65.5507 116.806 61.4507 112.526 62.7707 105.126C64.1607 97.3259 69.8007 91.7059 77.2307 90.6059C84.4207 89.5359 88.1307 93.7159 86.7907 101.236ZM76.3407 95.5859C73.5507 95.9959 70.9807 98.0259 69.7907 100.846L81.3807 99.1259C81.1107 96.4159 79.3107 95.1459 76.3407 95.5859ZM113.541 97.2759L113.281 98.7459L95.3907 101.396C94.9907 105.246 97.0407 107.366 100.731 106.816C103.641 106.386 105.381 105.086 108.331 101.176L112.741 103.046C108.841 108.356 104.901 110.976 99.6107 111.756C92.3007 112.836 88.2007 108.556 89.5207 101.146C90.9107 93.3459 96.5507 87.7259 103.981 86.6259C111.181 85.5559 114.881 89.7359 113.541 97.2559V97.2759ZM103.091 91.6159C100.301 92.0259 97.7307 94.0559 96.5407 96.8759L108.131 95.1559C107.861 92.4459 106.061 91.1759 103.091 91.6159ZM122.691 109.226L114.331 85.7159L120.811 84.7559L124.911 97.1259L133.711 82.8359L140.191 81.8759L122.691 109.226ZM161.511 90.1559L161.251 91.6259L143.361 94.2759C142.961 98.1359 145.011 100.246 148.701 99.6959C151.611 99.2659 153.351 97.9659 156.301 94.0559L160.711 95.9359C156.811 101.246 152.871 103.866 147.581 104.646C140.271 105.736 136.171 101.446 137.491 94.0459C138.881 86.2459 144.521 80.6259 151.951 79.5259C159.141 78.4559 162.851 82.6359 161.511 90.1559ZM151.061 84.5059C148.271 84.9159 145.701 86.9459 144.511 89.7659L156.101 88.0459C155.831 85.3359 154.031 84.0659 151.061 84.5059ZM175.711 82.9359C175.151 81.5359 174.441 80.9759 173.251 81.1559C172.241 81.3059 171.221 82.1759 171.051 83.1359C170.871 84.1559 171.371 84.5759 173.891 85.3559C179.591 87.1459 180.911 88.4959 180.281 91.9959C179.481 96.4559 174.921 100.606 169.991 101.336C165.711 101.976 163.141 100.486 162.061 96.7859L167.381 93.9059C168.321 96.0759 169.141 96.6659 170.871 96.4159C172.651 96.1459 174.021 94.9559 174.301 93.4359C174.581 91.8559 174.271 91.6859 169.311 89.9459C165.931 88.7959 165.011 87.4459 165.531 84.5159C166.291 80.2759 170.081 76.8559 174.781 76.1559C177.871 75.6959 179.861 76.8859 180.901 79.8159L175.711 82.9559V82.9359Z" stroke="white" stroke-width="4" mask="url(#path-1-outside-1_4064_199)"/>
<path d="M111.949 8.31482V3.26404H110.062V2.58826H114.602V3.26404H112.707V8.31482H111.949Z" fill="#BFBFBF"/>
<path d="M115.359 8.31482V2.58826H116.5L117.855 6.64294C117.98 7.02055 118.072 7.3031 118.129 7.4906C118.194 7.28227 118.296 6.97628 118.434 6.57263L119.805 2.58826H120.824V8.31482H120.094V3.52185L118.43 8.31482H117.746L116.09 3.43982V8.31482H115.359Z" fill="#BFBFBF"/>
</g>
<defs>
<clipPath id="clip0_4064_199">
<rect width="184" height="121" fill="white" transform="translate(0.000671387 0.625854)"/>
</clipPath>
</defs>
</svg>
